/* XPM */
static char *tools_check_spelling[] = {
/* columns rows colors chars-per-pixel */
"16 16 33 1",
"  c #2E3535",
". c #2E3436",
"X c #477D19",
"o c #519F08",
"O c #52A007",
"+ c #52A108",
"@ c #53A208",
"# c #54A309",
"$ c #59A90B",
"% c #59AB0A",
"& c #5BAE0B",
"* c #59AB0C",
"= c #5DAF0F",
"- c #5FB50D",
"; c #61B80E",
": c #62AF18",
"> c #63B811",
", c #65B01E",
"< c #68B41E",
"1 c #68BC18",
"2 c #66AD22",
"3 c #67AE23",
"4 c #69B223",
"5 c #6DC519",
"6 c #73C424",
"7 c #74C624",
"8 c #77CD22",
"9 c #77D020",
"0 c #7DCC30",
"q c #85CF3D",
"w c #82C740",
"e c #8ACF46",
"r c None",
/* pixels */
"rrrrrrrrrrrrrrrr",
"rr.rrr..rrr..rrr",
"rr..r....r.rrrrr",
"r...r......rrrrr",
"r......r...rrrrr",
"r.rr.....r...X$O",
"rrrrrrrrrrrrr:-r",
"rrrrrrrrrrrr<1+r",
"rrrrrrrrrrr47*rr",
"rrrrrrr,w220>rrr",
"rrrrrrr#6eq5+rrr",
"rrrrrrrr*89&rrrr",
"rrrrrrrrr-;rrrrr",
"rrrrrrrrr++rrrrr",
"rrrrrrrrrrrrrrrr",
"rrrrrrrrrrrrrrrr"
};
