/* XPM */
static char *tools_check_spelling_off[] = {
/* columns rows colors chars-per-pixel */
"16 16 38 1",
"  c #463426",
". c #473426",
"X c #473526",
"o c #483526",
"O c #483527",
"+ c #483627",
"@ c #503E2F",
"# c #776454",
"$ c #776556",
"% c #887666",
"& c #8C7969",
"* c #8D7A6A",
"= c #8D7B6A",
"- c #8E7C6C",
"; c #907E6D",
": c #907E6E",
"> c #918070",
", c #938171",
"< c #968474",
"1 c #978576",
"2 c #988777",
"3 c #998878",
"4 c #998978",
"5 c #9A8979",
"6 c #9B897A",
"7 c #9C8B7C",
"8 c #9C8C7D",
"9 c #9D8D7D",
"0 c #9C8C7E",
"q c #A19181",
"w c #A39383",
"e c #A39384",
"r c #A69687",
"t c #A9998A",
"y c #AA9A8B",
"u c #AC9D8E",
"i c #AC9D8F",
"p c None",
/* pixels */
"pppppppppppppppp",
"ppppppoppppppppp",
"ppXXpooXXpoopppp",
"pXXXpoooXooppppp",
"pXooXoooX++ppppp",
"poppXoooppp+@#&%",
"pppppppppppp#-:p",
"pppppppppppp33:p",
"ppppppppppp0q<pp",
"ppppppp<e00r7ppp",
"ppppppp,eiue,ppp",
"pppppppp2ty2pppp",
"ppppppppp33ppppp",
"ppppppppp-&ppppp",
"pppppppppppppppp",
"pppppppppppppppp"
};
